<svg width="80" height="80" viewBox="0 0 80 80" fill="none" xmlns="http://www.w3.org/2000/svg">
<g id="bi:folder-check" clip-path="url(#clip0_1_233)">
<g id="Group">
<path id="Vector" d="M2.50001 15L2.70001 19.35C1.38084 21.2677 0.775752 23.5872 0.990015 25.905L4.17501 60.905C4.40079 63.3896 5.54714 65.7 7.389 67.3828C9.23086 69.0655 11.6352 69.999 14.13 70H45V65H14.13C12.8826 64.9988 11.6808 64.5314 10.7603 63.6896C9.83984 62.8478 9.26728 61.6923 9.15501 60.45L5.97001 25.45C5.9075 24.7582 5.9898 24.0611 6.21166 23.4029C6.43353 22.7447 6.79009 22.14 7.25862 21.6272C7.72714 21.1145 8.29736 20.705 8.93292 20.4248C9.56848 20.1446 10.2554 20 10.95 20H69.05C69.7446 20 70.4315 20.1446 71.0671 20.4248C71.7027 20.705 72.2729 21.1145 72.7414 21.6272C73.2099 22.14 73.5665 22.7447 73.7884 23.4029C74.0102 24.0611 74.0925 24.7582 74.03 25.45L72.7 40H77.725L79.005 25.905C79.1307 24.5215 78.9668 23.127 78.5237 21.8104C78.0806 20.4938 77.3681 19.2839 76.4315 18.2579C75.4949 17.232 74.3548 16.4124 73.0839 15.8515C71.813 15.2905 70.4392 15.0006 69.05 15H49.14C46.4881 14.9994 43.9449 13.9455 42.07 12.07L37.93 7.93C36.0551 6.05451 33.512 5.00057 30.86 5H12.5C9.84785 5 7.30431 6.05357 5.42895 7.92893C3.55358 9.8043 2.50001 12.3478 2.50001 15ZM30.86 10C32.186 10.0003 33.4576 10.5273 34.395 11.465L37.93 15H10.95C9.75002 15 8.60001 15.21 7.53501 15.6L7.50001 14.9C7.52619 13.5913 8.06451 12.3451 8.99937 11.4289C9.93423 10.5128 11.1911 9.99974 12.5 10H30.86Z" fill="#2B444E"/>
<path id="Vector_2" d="M79.2701 50.73C79.5029 50.9622 79.6876 51.2381 79.8137 51.5418C79.9397 51.8456 80.0046 52.1712 80.0046 52.5C80.0046 52.8288 79.9397 53.1544 79.8137 53.4582C79.6876 53.7619 79.5029 54.0378 79.2701 54.27L64.2701 69.27C63.8013 69.7387 63.1655 70.002 62.5026 70.002C61.8397 70.002 61.2039 69.7387 60.7351 69.27L53.2351 61.77C52.7657 61.3012 52.5017 60.6652 52.5012 60.0018C52.5008 59.3384 52.7638 58.7019 53.2326 58.2325C53.7014 57.7631 54.3374 57.4991 55.0008 57.4986C55.6643 57.4981 56.3007 57.7612 56.7701 58.23L62.5001 63.965L75.7301 50.73C75.9623 50.4972 76.2382 50.3125 76.5419 50.1864C76.8457 50.0604 77.1713 49.9955 77.5001 49.9955C77.8289 49.9955 78.1546 50.0604 78.4583 50.1864C78.762 50.3125 79.0379 50.4972 79.2701 50.73Z" fill="#2B444E"/>
</g>
</g>
<defs>
<clipPath id="clip0_1_233">
<rect width="80" height="80" fill="white"/>
</clipPath>
</defs>
</svg>
