<svg width="16" height="16" viewBox="0 0 16 16" fill="none" xmlns="http://www.w3.org/2000/svg">
<g id="emojione:copyright">
<g id="Group">
<path id="Vector" d="M8 0.5C4.55 0.5 1.75 3.3 1.75 6.75C1.75 10.2 4.55 13 8 13C11.45 13 14.25 10.2 14.25 6.75C14.25 3.3 11.45 0.5 8 0.5ZM8 11.75C5.25 11.75 3 9.5 3 6.75C3 4 5.25 1.75 8 1.75C10.75 1.75 13 4 13 6.75C13 9.5 10.75 11.75 8 11.75Z" fill="#4D5357"/>
<path id="Vector_2" d="M6.3501 4.825C6.5751 4.575 6.8501 4.375 7.1751 4.25C7.5001 4.1 7.8251 4.025 8.1751 4.025C8.6001 4.025 9.0251 4.125 9.3751 4.35C9.7251 4.55 10.0501 4.85 10.2751 5.175L11.1751 4.5C10.8251 4.05 10.4001 3.65 9.9001 3.4C9.3751 3.125 8.8251 3 8.2001 3C7.7001 3 7.2001 3.1 6.7501 3.3C6.3001 3.5 5.9001 3.775 5.5751 4.1C5.2501 4.45 4.9751 4.825 4.7751 5.3C4.5751 5.75 4.4751 6.25 4.4751 6.75C4.4751 7.275 4.5751 7.75 4.7751 8.2C4.9751 8.65 5.2251 9.05 5.5751 9.4C5.9001 9.75 6.3001 10 6.7501 10.2C7.2001 10.4 7.6751 10.5 8.2001 10.5C8.8251 10.5 9.4001 10.375 9.9001 10.1C10.4001 9.825 10.8501 9.45 11.1751 9L10.2751 8.325C10.0501 8.675 9.7501 8.95 9.3751 9.15C9.0001 9.35 8.6001 9.45 8.1751 9.45C7.8251 9.45 7.5001 9.375 7.1751 9.225C6.8751 9.075 6.6001 8.875 6.3501 8.65C6.1251 8.4 5.9251 8.125 5.8001 7.8C5.6751 7.475 5.6001 7.125 5.6001 6.75C5.6001 6.375 5.6751 6.025 5.8001 5.7C5.9251 5.375 6.1251 5.075 6.3501 4.825Z" fill="#4D5357"/>
</g>
</g>
</svg>
