<svg width="80" height="80" viewBox="0 0 80 80" fill="none" xmlns="http://www.w3.org/2000/svg">
<g id="fluent:wallet-credit-card-16-regular">
<path id="Vector" d="M39.77 6.86C40.1828 6.34347 40.6939 5.91394 41.2739 5.59629C41.8538 5.27863 42.4909 5.07916 43.1485 5.0094C43.806 4.93965 44.4708 5.00101 45.1045 5.18993C45.7381 5.37885 46.328 5.69157 46.84 6.11L63.15 19.43C64.047 20.1624 64.6619 21.1833 64.8899 22.3186C65.1179 23.4539 64.9447 24.6332 64.4 25.655C62.974 25.2192 61.4911 24.9984 60 25H58.5L59.99 23.3L51.4 16.285L44.315 25.005H37.87L47.525 13.125L43.675 9.98L31.685 25H25.285L39.77 6.86ZM52.5 50C51.837 50 51.2011 50.2634 50.7322 50.7322C50.2634 51.2011 50 51.837 50 52.5C50 53.163 50.2634 53.7989 50.7322 54.2678C51.2011 54.7366 51.837 55 52.5 55H57.5C58.163 55 58.7989 54.7366 59.2678 54.2678C59.7366 53.7989 60 53.163 60 52.5C60 51.837 59.7366 51.2011 59.2678 50.7322C58.7989 50.2634 58.163 50 57.5 50H52.5ZM15 27.5C15 26.837 15.2634 26.2011 15.7322 25.7322C16.2011 25.2634 16.837 25 17.5 25H20.29L24.265 20H17.5C15.5109 20 13.6032 20.7902 12.1967 22.1967C10.7902 23.6032 10 25.5109 10 27.5V57.5C10 60.8152 11.317 63.9946 13.6612 66.3388C16.0054 68.683 19.1848 70 22.5 70H60C62.6522 70 65.1957 68.9464 67.0711 67.0711C68.9464 65.1957 70 62.6522 70 60V40C70 37.3478 68.9464 34.8043 67.0711 32.9289C65.1957 31.0536 62.6522 30 60 30H17.5C16.837 30 16.2011 29.7366 15.7322 29.2678C15.2634 28.7989 15 28.163 15 27.5ZM15 57.5V34.575C15.78 34.85 16.625 35 17.5 35H60C61.3261 35 62.5979 35.5268 63.5355 36.4645C64.4732 37.4021 65 38.6739 65 40V60C65 61.3261 64.4732 62.5979 63.5355 63.5355C62.5979 64.4732 61.3261 65 60 65H22.5C20.5109 65 18.6032 64.2098 17.1967 62.8033C15.7902 61.3968 15 59.4891 15 57.5Z" fill="#2B444E"/>
</g>
</svg>
