<svg width="19" height="18" viewBox="0 0 19 18" fill="none" xmlns="http://www.w3.org/2000/svg">
<g id="Group">
<g id="Group_2">
<g id="Group_3">
<path id="Vector" d="M17.8445 14.707L14.0133 11.0149C13.3044 10.3318 12.1823 10.3316 11.4733 11.0144C10.7255 11.7345 10.7255 12.9315 11.4733 13.6516L15.2087 17.2487C15.6276 17.6521 16.3172 17.6521 16.7361 17.2487L17.8445 16.1814C18.2634 15.7744 18.2634 15.1068 17.8445 14.707Z" fill="#B7B7B7"/>
<path id="Vector_2" d="M9.55386 10.5963C9.92529 10.954 10.5131 10.954 10.8845 10.5963C11.2763 10.219 11.2763 9.5918 10.8845 9.21452L10.7434 9.0787C10.332 8.6825 10.2885 8.04853 10.5287 7.53031C11.4319 5.58161 11.056 3.21452 9.39619 1.61614C7.24976 -0.450823 3.76135 -0.450823 1.61121 1.61614C-0.538924 3.6831 -0.535217 7.04237 1.61121 9.1129C3.27579 10.7159 5.74323 11.0753 7.77014 10.196C8.30361 9.96452 8.94227 10.0074 9.36114 10.4107L9.55386 10.5963ZM2.67887 8.07049C1.12187 6.57114 1.12187 4.14005 2.67887 2.64427C4.23586 1.14492 6.76042 1.14492 8.31371 2.64427C9.8707 4.14362 9.8707 6.57471 8.31371 8.07049C6.76042 9.56984 4.23586 9.56984 2.67887 8.07049Z" fill="#B7B7B7"/>
</g>
</g>
</g>
</svg>
