<svg width="40" height="40" viewBox="0 0 40 40" fill="none" xmlns="http://www.w3.org/2000/svg">
<g id="mdi:naira">
<path id="Vector" d="M13.3333 15.5556H16.6666V5.55556H19.9999L25.6999 15.5556H33.3333V5.55556H36.6666V15.5556H39.9999V18.8889H36.6666V22.2222H39.9999V25.5556H36.6666V35.5556H33.3333L27.6166 25.5556H19.9999V35.5556H16.6666V25.5556H13.3333V22.2222H16.6666V18.8889H13.3333V15.5556ZM19.9999 15.5556H21.8833L19.9999 12.2722V15.5556ZM19.9999 18.8889V22.2222H25.6999L23.7999 18.8889H19.9999ZM33.3333 28.8889V25.5556H31.4166L33.3333 28.8889ZM27.5999 18.8889L29.5166 22.2222H33.3333V18.8889H27.5999Z" fill="#64AF7A"/>
</g>
</svg>
