<svg width="32" height="32" viewBox="0 0 32 32" fill="none" xmlns="http://www.w3.org/2000/svg">
<g id="mdi:bell-notification-outline">
<path id="Vector" d="M25.3333 22.6667V15.7334C24.6667 15.8667 24 16.0001 23.3333 16.0001H22.6667V24.0001H9.33333V14.6667C9.33333 10.9334 12.2667 8.00008 16 8.00008C16.1333 6.26675 16.9333 4.80008 18 3.60008C17.6 3.06675 16.8 2.66675 16 2.66675C14.5333 2.66675 13.3333 3.86675 13.3333 5.33341V5.73342C9.33333 6.93341 6.66667 10.5334 6.66667 14.6667V22.6667L4 25.3334V26.6667H28V25.3334L25.3333 22.6667ZM13.3333 28.0001C13.3333 29.4667 14.5333 30.6667 16 30.6667C17.4667 30.6667 18.6667 29.4667 18.6667 28.0001H13.3333ZM28 8.66675C28 11.2001 25.8667 13.3334 23.3333 13.3334C20.8 13.3334 18.6667 11.2001 18.6667 8.66675C18.6667 6.13341 20.8 4.00008 23.3333 4.00008C25.8667 4.00008 28 6.13341 28 8.66675Z" fill="#494949"/>
</g>
</svg>
