<svg width="246" height="228" viewBox="0 0 246 228" fill="none" xmlns="http://www.w3.org/2000/svg">
<path id="Vector" d="M244.875 123.5C244.875 143.5 230.838 160.925 211.038 163.838C197.45 165.838 183.725 167.375 169.875 168.45V226.5L118.925 175.55C115.47 172.117 110.832 170.136 105.963 170.013C82.1949 169.355 58.4869 167.293 34.9625 163.838C15.1625 160.925 1.125 143.513 1.125 123.488V48.2625C1.125 28.2375 15.1625 10.825 34.9625 7.91253C64.113 3.63395 93.5372 1.49075 123 1.50003C152.9 1.50003 182.3 3.68753 211.038 7.91253C230.838 10.825 244.875 28.25 244.875 48.2625V123.488V123.5Z" stroke="#B7B7B7" stroke-width="1.5" stroke-linecap="round" stroke-linejoin="round"/>
</svg>
